<svg height="480pt" viewBox="-10 0 480 480" width="480pt" xmlns="http://www.w3.org/2000/svg" xmlns:xlink="http://www.w3.org/1999/xlink"><linearGradient id="a" gradientUnits="userSpaceOnUse" x1="16.40724" x2="394.37524" y1="420.008" y2="42.04"><stop offset="0" stop-color="#41dfd0"/><stop offset="1" stop-color="#ee83ef"/></linearGradient><path d="m367.71875 192c0-4.417969 3.582031-8 8-8h16v-16c0-4.417969 3.582031-8 8-8s8 3.582031 8 8v24c0 4.417969-3.582031 8-8 8h-24c-4.417969 0-8-3.582031-8-8zm-212.207031-56c0-17.671875 14.328125-32 32-32s32 14.328125 32 32-14.328125 32-32 32-32-14.328125-32-32zm16 0c0 8.835938 7.164062 16 16 16 8.835937 0 16-7.164062 16-16s-7.164063-16-16-16c-8.835938 0-16 7.164062-16 16zm-170.632813 15.335938c-3.414062-12.261719 3.339844-25.054688 15.390625-29.15625 12.046875-4.101563 25.203125 1.917968 29.976563 13.714843l77.296875-1.191406c0-.589844 0-1.191406.046875-1.773437l-25.375-20.929688c-2.332032-1.945312-3.351563-5.050781-2.617188-8h-47.878906c-4.417969 0-8-3.582031-8-8v-33.472656c-11.019531-3.894532-17.628906-15.164063-15.652344-26.683594 1.976563-11.523438 11.964844-19.941406 23.652344-19.941406s21.679688 8.417968 23.65625 19.941406c1.976562 11.519531-4.636719 22.789062-15.65625 26.683594v25.472656h48c.207031 0 .375.105469.585938.121094l8.0625-13.976563c1.957031-3.386719 6.074218-4.863281 9.734374-3.488281l30.824219 11.542969c1.738281-1.128907 3.503907-2.152344 5.289063-3.085938l5.402344-32.425781c.640624-3.859375 3.980468-6.691406 7.894531-6.6875h12.207031v-32c0-4.417969 3.582031-8 8-8h80c4.417969 0 8 3.582031 8 8v16h54.167969l3.328125-4.648438c2.285156-3.203124 6.558594-4.265624 10.082031-2.511718l23.199219 11.617187c47.445312 23.511719 77.398437 71.957031 77.222656 124.910157.042969 14.6875-5.117188 28.914062-14.558594 40.160156l24.871094 56c2.1875 4.949218 1.726562 10.664062-1.222656 15.199218-2.949219 4.535157-7.992188 7.269532-13.402344 7.273438h-11.6875v24c-.007812 2.125-.851562 4.160156-2.351562 5.664062l-13.648438 13.648438v44.6875c0 4.417969-3.582031 8-8 8h-48c-5.597656 0-23.871094-9.382812-54.085938-27.617188l-17.914062 29.832032v42.472656l53.65625 53.65625c2.289062 2.289062 2.972656 5.730469 1.734375 8.71875s-4.15625 4.9375-7.390625 4.9375h-256c-3.234375 0-6.152344-1.949219-7.390625-4.9375-1.234375-2.988281-.550781-6.429688 1.734375-8.71875l69.65625-69.65625v-116.6875c0-4.417969 3.582031-8 8-8h24v-40h-4.207031c-3.910157.003906-7.25-2.824219-7.894531-6.679688l-5.402344-32.433593c-1.785156-.933594-3.550782-1.957031-5.289063-3.085938l-25.597656 9.597657.390625 40.53125c.019531 2.132812-.816406 4.1875-2.316406 5.703124-1.503906 1.515626-3.550782 2.367188-5.683594 2.367188h-48c-.46875-.046875-.933594-.140625-1.382812-.28125-3.777344 11.121094-15.050782 17.875-26.636719 15.960938-11.589844-1.914063-20.089844-11.933594-20.089844-23.679688s8.5-21.765625 20.089844-23.679688c11.585937-1.914062 22.859375 4.839844 26.636719 15.960938.449218-.140625.914062-.234375 1.382812-.28125h39.929688l-.328126-36-14.953124-25.886719c-1.917969-3.375-1.136719-7.636719 1.847656-10.113281l10.976562-9.039062-62.914062.976562c-3.382813 9.722656-12.609375 16.191406-22.902344 16.0625-10.296875-.128906-19.355469-6.828125-22.496094-16.632812zm54.839844 88.664062c0-4.417969-3.582031-8-8-8s-8 3.582031-8 8 3.582031 8 8 8 8-3.582031 8-8zm-16-200c0 4.417969 3.582031 8 8 8s8-3.582031 8-8-3.582031-8-8-8-8 3.582031-8 8zm152 232h88v-16c0-3.273438 1.992188-6.21875 5.03125-7.433594l21.425781-8.566406h-18.457031v-16h32v-13.335938l-14.261719-19.015624c-.5625.1875-1.148437.304687-1.738281.351562h-37.6875l-3.382812 5.855469c-1.957032 3.386719-6.074219 4.863281-9.738282 3.488281l-30.789062-11.542969c-1.738282 1.128907-3.503906 2.160157-5.28125 3.085938l-5.410156 32.433593c-.644532 3.855469-3.976563 6.679688-7.886719 6.679688h-11.824219zm85.089844-160-19.402344 16h38.3125v-32h-20.449219l3.378907 5.855469c1.9375 3.378906 1.160156 7.660156-1.839844 10.144531zm-19.402344 32 19.402344 16c3.015625 2.488281 3.792968 6.789062 1.839844 10.175781l-3.378907 5.824219h20.449219v-32zm-17.6875 192v-48h-16v88h48v-4.6875l-29.65625-29.65625c-1.5-1.5-2.34375-3.535156-2.34375-5.65625zm-62.398438 128h62.398438v-72h-16v16c.003906 1.9375-.699219 3.8125-1.976562 5.273438l-30.023438 34.3125v.414062h-.367188zm-21.265624 0 19.664062-22.398438v-57.601562h16v39.28125l16-18.289062v-116.992188h-48v112c0 2.121094-.84375 4.15625-2.34375 5.65625l-58.34375 58.34375zm117.976562-42.34375c-1.488281-1.503906-2.320312-3.539062-2.3125-5.65625v-24h-16v72h60.6875zm17.910156-89.601562c-2.8125-1.734376-5.511718-3.382813-8.496094-5.253907-2.328124-1.472656-3.738281-4.042969-3.726562-6.800781v-32h-24v44.6875l22.402344 22.402344zm19.777344-249.496094v90.777344l22.402344 29.863281c1.035156 1.386719 1.597656 3.070312 1.597656 4.800781v32c0 3.273438-1.992188 6.21875-5.03125 7.433594l-34.96875 13.980468v54.144532c3.726562 2.3125 7.503906 4.632812 11.273438 6.921875h.046874l.039063.039062c17.070313 11.105469 34.917969 20.96875 53.402344 29.519531l39.238281-.039062v-40c0-2.121094.84375-4.15625 2.34375-5.65625l3.089844-3.085938c-13.292969-1.914062-25.605469-8.089843-35.089844-17.601562-3.03125-3.140625-2.988281-8.128906.097656-11.214844 3.085938-3.085937 8.074219-3.128906 11.214844-.097656 8.722656 8.773438 20.597656 13.691406 32.96875 13.65625h1.375v-24c0-4.417969 3.582031-8 8-8h19.6875l-27-60.753906c-1.34375-3.023438-.683594-6.5625 1.65625-8.902344 8.773438-8.726562 13.691406-20.601562 13.65625-32.976562.160156-46.882813-26.351562-89.777344-68.359375-110.597657l-17.105469-8.5625zm-112-42.558594h3.792969c3.90625 0 7.242187 2.824219 7.886719 6.679688l5.410156 32.433593c1.773437.925781 3.542968 1.957031 5.277344 3.085938l30.824218-11.542969c3.664063-1.375 7.78125.101562 9.738282 3.488281l3.382812 5.855469h29.6875c0-1.667969.523438-3.292969 1.496094-4.648438l25.25-35.351562h-50.746094c-4.417969 0-8-3.582031-8-8v-16h-64zm-62.703125 83.246094c2.105469 1.734375 3.1875 4.421875 2.863281 7.128906-.492187 3.734375-.492187 7.515625 0 11.25v.550781c0 .183594.054688.175781.054688.273438-.011719.113281-.035156.230469-.0625.34375-.003906.941406-.175782 1.878906-.511719 2.757812l-.046875.089844c-.351562.8125-.839844 1.558594-1.441406 2.207031-.136719.164063-.285156.316406-.441406.464844-.125.152344-.261719.300781-.40625.441406l-23.40625 19.246094 9.222656 16 28.40625-10.648438c2.550781-.953124 5.410156-.546874 7.59375 1.082032 3.007812 2.269531 6.277344 4.175781 9.734375 5.679687 2.503906 1.074219 4.289062 3.351563 4.738281 6.039063l4.964844 29.847656h18.457031l4.976563-29.855469c.445312-2.6875 2.230468-4.964843 4.734374-6.039062 3.457032-1.507813 6.726563-3.414063 9.738282-5.679688 2.179687-1.628906 5.035156-2.035156 7.582031-1.082031l28.417969 10.65625 9.214844-16-23.398438-19.257812c-2.105469-1.730469-3.183594-4.417969-2.855469-7.125.488281-3.734376.488281-7.515626 0-11.25-.328125-2.707032.75-5.394532 2.855469-7.128907l23.398438-19.238281-9.214844-16-28.417969 10.648438c-2.546875.953124-5.402344.546874-7.582031-1.082032-3.011719-2.265625-6.28125-4.171875-9.738282-5.679687-2.503906-1.074219-4.289062-3.351563-4.734374-6.039063l-4.976563-29.847656h-18.445313l-4.96875 29.855469c-.449218 2.6875-2.234374 4.964843-4.738281 6.039062-3.457031 1.503907-6.726562 3.410157-9.734375 5.679688-2.183594 1.628906-5.042968 2.039062-7.59375 1.082031l-28.414062-10.65625-9.222656 16zm-120.90625 23.203125c1.355469 4.203125 5.859375 6.519531 10.066406 5.167969 2.882813-.734376 5.121094-3.011719 5.808594-5.910157.6875-2.894531-.292969-5.933593-2.539063-7.886719-2.25-1.949218-5.394531-2.492187-8.167968-1.40625-4.203125 1.355469-6.519532 5.859376-5.167969 10.066407zm175.609375 173.550781h-16v16h16zm0 32h-16v16h16zm48-128h-16v16h16zm32 0h-16v16h16zm72-144h-16v32h16zm0 48h-16v16h16zm0 32h-16v16h16zm0 0" fill="url(#a)"/></svg>